<?xml version="1.0" encoding="UTF-8"?><svg
      class="svg-canvas"
      viewBox="0 0 800 600"
      width="800"
      height="600"
      preserveAspectRatio="none"
      version="1.1"
      xmlns="http://www.w3.org/2000/svg"
      xmlns:xlink="http://www.w3.org/1999/xlink"
    >
      <!--滤镜-->
      <defs></defs>
    
      <!-- 背景 -->
      <g id="background">
          <rect
                  x="0"
                  y="0"
                  fill="#ffffff"
                  width="800"
                  height="600"
                ></rect>
          
        </g>
    
      <!--元素-->
      
              <g 
                id="shape_p7cq4kc1mh"
                ref="shape_p7cq4kc1mh"
                key="shape_p7cq4kc1mh"
                mask=""
              >
                <g
                  transform="translate(-22.554287601100214,-157.88402948101947) rotate(0,515.9945040872443,431.0071740022863) scale(1,1)"
                  style="opacity: 1;mix-blend-mode: undefined;"
                  filter=""
                >
                  <!--普通元素-->
                  <svg xmlns="http://www.w3.org/2000/svg" version="1.1" xmlns:xlink="http://www.w3.org/1999/xlink" width="1031.9890081744886" height="862.0143480045728" viewBox="0 0 595 497" data-ligature="true" data-parent="shape_p7cq4kc1mh"><g data-role="text" data-width="168.62500000000003" data-height="71" transform="translate(213, 213)"><path d="M26.34-8.45L40.83-8.45L40.83 0L24.28 0Q19.60 0 17.11-0.50L17.11-0.50Q8.38-2.20 4.69-10.22L4.69-10.22Q2.27-15.62 2.27-23.57L2.27-23.57Q2.27-33.09 5.96-39.05L5.96-39.05Q8.66-43.38 13.17-45.37Q17.68-47.36 24.78-47.36L24.78-47.36L40.83-47.36L40.83-38.91L25.92-38.91Q19.17-38.91 16.05-35.29L16.05-35.29Q13.42-32.31 13.42-24.50L13.42-24.50Q13.42-13.99 17.47-10.72L17.47-10.72Q20.31-8.45 26.34-8.45L26.34-8.45Z" transform="translate(0 60) " fill="rgb(41, 33, 183)" stroke="rgb(41, 33, 183)" stroke-width="0.118" data-glyph-w="43.026" data-glyph-h="71.00000000000001" data-glyph-ascender="60.989000000000004" data-glyph-descender="-10.011000000000001" data-kerning="0"></path><path d="M4.62-47.36L14.13-47.36L14.13-34.58L23.86-34.58Q28.19-34.58 30.64-33.90Q33.09-33.23 34.79-31.52L34.79-31.52Q38.06-28.54 38.06-21.51L38.06-21.51L38.06 0L28.54 0L28.54-19.67Q28.54-22.44 28.29-23.61Q28.05-24.78 27.26-25.63L27.26-25.63Q25.84-27.12 21.87-27.19L21.87-27.19L14.13-27.19L14.13 0L4.62 0L4.62-47.36Z" transform="translate(43.026 60) " fill="rgb(41, 33, 183)" stroke="rgb(41, 33, 183)" stroke-width="0.118" data-glyph-w="42.316" data-glyph-h="71.00000000000001" data-glyph-ascender="60.989000000000004" data-glyph-descender="-10.011000000000001" data-kerning="0"></path><path d="M16.83-21.02L28.47-21.02Q28.47-24.64 27.02-25.92Q25.56-27.19 21.23-27.19L21.23-27.19L5.18-27.19L5.18-34.58L21.23-34.58Q25.56-34.58 27.19-34.40Q28.83-34.22 30.53-33.73L30.53-33.73Q38.41-30.74 37.99-19.45L37.99-19.45L37.99 0L17.96 0Q12.57 0 10.51-0.32Q8.45-0.64 6.89-1.63L6.89-1.63Q2.70-4.47 2.70-10.22L2.70-10.22Q2.70-13.70 4.37-16.44Q6.04-19.17 8.80-20.16L8.80-20.16Q11.22-21.02 16.83-21.02L16.83-21.02ZM28.47-7.38L28.47-13.63L17.54-13.63L15.90-13.63Q14.27-13.63 13.31-12.78Q12.35-11.93 12.35-10.44L12.35-10.44Q12.35-8.80 13.53-8.09Q14.70-7.38 17.54-7.38L17.54-7.38L28.47-7.38Z" transform="translate(85.34200000000001 60) " fill="rgb(41, 33, 183)" stroke="rgb(41, 33, 183)" stroke-width="0.118" data-glyph-w="42.245000000000005" data-glyph-h="71.00000000000001" data-glyph-ascender="60.989000000000004" data-glyph-descender="-10.011000000000001" data-kerning="0"></path><path d="M4.62 0L4.62-34.58L22.93-34.58Q27.05-34.58 29.22-33.97Q31.38-33.37 33.16-31.81L33.16-31.81Q36.78-28.47 36.78-21.30L36.78-21.30L36.78 0L27.26 0L27.26-22.37Q27.26-24.92 26.13-26.06Q24.99-27.19 22.37-27.19L22.37-27.19L14.13-27.19L14.13 0L4.62 0Z" transform="translate(127.58700000000002 60) " fill="rgb(41, 33, 183)" stroke="rgb(41, 33, 183)" stroke-width="0.118" data-glyph-w="41.038000000000004" data-glyph-h="71.00000000000001" data-glyph-ascender="60.989000000000004" data-glyph-descender="-10.011000000000001" data-kerning="0"></path></g></svg>
                </g>
              </g>
              <g 
                id="shape_CmKqzpHpMa"
                ref="shape_CmKqzpHpMa"
                key="shape_CmKqzpHpMa"
                mask=""
              >
                <g
                  transform="translate(216.7977848830669,205.34849562056868) rotate(0,182.11570732490972,151.76308943742478) scale(1,1)"
                  style="opacity: 1;mix-blend-mode: undefined;"
                  filter=""
                >
                  <!--普通元素-->
                  <svg xmlns="http://www.w3.org/2000/svg" version="1.1" xmlns:xlink="http://www.w3.org/1999/xlink" width="364.23141464981944" height="303.52617887484956" viewBox="0 0 210 175" data-ligature="true" data-parent="shape_CmKqzpHpMa"><g data-role="text" data-width="59.765625" data-height="25" transform="translate(75, 75)"><path d="M14.69-6.60L17.03-6.60L17.03-6.60Q16.56-3.28 14.48-1.40Q12.40 0.49 9.22 0.49L9.22 0.49Q5.51 0.49 3.30-2.07Q1.10-4.63 1.10-8.96L1.10-8.96Q1.10-13.29 3.39-15.86Q5.68-18.43 9.53-18.43L9.53-18.43Q12.57-18.43 14.53-16.87Q16.48-15.31 16.87-12.56L16.87-12.56L16.87-12.56L14.53-12.56L14.53-12.56Q14.18-14.34 12.87-15.31Q11.56-16.28 9.50-16.28L9.50-16.28Q6.80-16.28 5.20-14.30Q3.60-12.32 3.60-8.96L3.60-8.96Q3.60-5.40 5.08-3.53Q6.57-1.66 9.39-1.66L9.39-1.66Q11.47-1.66 12.85-2.95Q14.23-4.24 14.69-6.60L14.69-6.60L14.69-6.60Z" transform="translate(0 21) " fill="rgb(41, 33, 183)" stroke="rgb(41, 33, 183)" stroke-width="0.042" data-glyph-w="18.05419921875" data-glyph-h="28.64990234375" data-glyph-ascender="23.193359375" data-glyph-descender="-5.45654296875" data-kerning="0"></path><path d="M1.62 0L1.62 0L1.62-17.94L1.62-17.94L2.72-17.94L3.82-17.94L3.82-17.94L3.82-11.29L3.82-11.29L3.82-11.29L4.20-11.78Q5.63-13.45 7.78-13.45L7.78-13.45Q9.94-13.45 11.11-12.28Q12.28-11.11 12.28-8.95L12.28-8.95L12.28 0L12.28 0L11.18 0L10.08 0L10.08 0L10.08-8.40Q10.08-10.02 9.46-10.74Q8.84-11.45 7.43-11.45L7.43-11.45Q5.77-11.45 4.80-10.25Q3.82-9.05 3.82-6.99L3.82-6.99L3.82-6.99L3.82 0L3.82 0L2.72 0L1.62 0Z" transform="translate(18.05419921875 21) " fill="rgb(41, 33, 183)" stroke="rgb(41, 33, 183)" stroke-width="0.042" data-glyph-w="13.90380859375" data-glyph-h="28.64990234375" data-glyph-ascender="23.193359375" data-glyph-descender="-5.45654296875" data-kerning="0"></path><path d="M5.07 0.35L5.07 0.35Q3.15 0.35 2.03-0.67Q0.90-1.70 0.90-3.44L0.90-3.44Q0.90-5.20 1.96-6.24Q3.02-7.28 5.04-7.53L5.04-7.53L8.03-7.91Q8.40-7.95 8.73-8.03L8.73-8.03Q9.16-8.14 9.39-8.47Q9.62-8.80 9.62-9.30L9.62-9.30L9.62-9.41Q9.62-10.46 8.83-11.05Q8.03-11.65 6.62-11.65L6.62-11.65Q5.26-11.65 4.50-11.02Q3.74-10.39 3.58-9.14L3.58-9.14L3.58-9.14L1.55-9.14L1.55-9.14Q1.71-11.29 3.06-12.37Q4.42-13.45 6.95-13.45L6.95-13.45Q9.33-13.45 10.57-12.42Q11.82-11.39 11.82-9.41L11.82-9.41L11.82-2.23Q11.82-1.90 12.02-1.70Q12.22-1.50 12.56-1.50L12.56-1.50Q12.66-1.50 12.85-1.53Q13.04-1.55 13.26-1.60L13.26-1.60L13.26-0.01Q12.94 0.11 12.59 0.18Q12.23 0.26 11.99 0.26L11.99 0.26Q10.74 0.26 10.18-0.43L10.18-0.43Q9.81-0.88 9.66-1.71L9.66-1.71L9.66-1.71Q9.41-1.40 9.09-1.12L9.09-1.12Q7.45 0.35 5.07 0.35ZM9.62-5.18L9.62-5.18L9.62-6.59L9.62-6.59Q9.01-6.30 8.26-6.19L8.26-6.19L6.25-5.90Q4.66-5.68 3.93-5.16Q3.20-4.64 3.20-3.75L3.20-3.75Q3.20-2.65 3.80-2.06Q4.39-1.46 5.49-1.46L5.49-1.46Q7.23-1.46 8.42-2.40L8.42-2.40Q9.24-3.06 9.51-3.89L9.51-3.89Q9.56-4.05 9.58-4.39L9.58-4.39Q9.62-4.75 9.62-5.18Z" transform="translate(31.9580078125 21) " fill="rgb(41, 33, 183)" stroke="rgb(41, 33, 183)" stroke-width="0.042" data-glyph-w="13.90380859375" data-glyph-h="28.64990234375" data-glyph-ascender="23.193359375" data-glyph-descender="-5.45654296875" data-kerning="0"></path><path d="M1.62 0L1.62 0L1.62-13.06L1.62-13.06L2.66-13.06L3.71-13.06L3.71-13.06L3.71-11.13L3.71-11.13L3.71-11.13L4.20-11.78Q5.63-13.45 7.78-13.45L7.78-13.45Q9.94-13.45 11.11-12.28Q12.28-11.11 12.28-8.95L12.28-8.95L12.28 0L12.28 0L11.18 0L10.08 0L10.08 0L10.08-8.20Q10.08-9.92 9.42-10.69Q8.75-11.45 7.26-11.45L7.26-11.45Q5.68-11.45 4.75-10.25Q3.82-9.05 3.82-6.99L3.82-6.99L3.82-6.99L3.82 0L3.82 0L2.72 0L1.62 0Z" transform="translate(45.86181640625 21) " fill="rgb(41, 33, 183)" stroke="rgb(41, 33, 183)" stroke-width="0.042" data-glyph-w="13.90380859375" data-glyph-h="28.64990234375" data-glyph-ascender="23.193359375" data-glyph-descender="-5.45654296875" data-kerning="0"></path></g></svg>
                </g>
              </g>
              <g 
                id="shape_JBMmGUXjms"
                ref="shape_JBMmGUXjms"
                key="shape_JBMmGUXjms"
                mask=""
              >
                <g
                  transform="translate(173.8352235553012,134.55395470199798) rotate(5,153.56190425821757,165.4460452980017) scale(1,1)"
                  style="opacity: 1;mix-blend-mode: undefined;"
                  filter=""
                >
                  <!--普通元素-->
                  <svg version="1.1" id="图层_1" xmlns="http://www.w3.org/2000/svg" xmlns:xlink="http://www.w3.org/1999/xlink" x="0px" y="0px" width="307.12380851643513" height="330.8920905960034" viewBox="13.960136413574219 9.796470642089844 172.03985595703125 185.35400390625" style="enable-background:new 0 0 200 200;" xml:space="preserve" class="style-removed" preserveAspectRatio="none" data-parent="shape_JBMmGUXjms">

<g>
	<path d="M174.46,147.38c1.79-1.26,3.47-2.61,5.04-3.93c-3.41,3.92-7.4,7.55-11.89,10.66
		c-29.87,20.88-71.01,13.59-91.89-16.28S62.15,66.81,92.02,45.94c17.4-12.14,38.58-14.83,57.34-8.99
		c-15.17-2.56-31.34,0.69-44.97,10.26c-27.62,19.32-34.37,57.51-15.05,85.13C108.67,160.05,146.74,166.72,174.46,147.38z" fill="#15BCC8" stroke-width="0"></path>
	<path d="M186,152.1c-21.2,33.1-62.1,50.5-102.3,40C33.9,179,4,128,17,78.1C25.6,45.2,50.7,21,81.1,12
		C62,23.4,47.2,42,41.1,65.3c-12.3,47,15.9,95.1,62.9,107.3C134.2,180.5,164.7,171.7,186,152.1z" fill="#1730C6" stroke-width="0"></path>
	<path d="M182.62,45.27c-11.32-11.12-26.37-18.65-43.35-20.56c-40.63-4.63-77.27,24.53-82,65.14
		c-1.91,16.98,2.04,33.37,10.29,46.9C51.75,121.3,43.04,98.98,45.75,75.42c4.63-40.63,41.36-69.77,82-65.14
		C151.44,12.81,171.14,26.34,182.62,45.27z" fill="#033CDD" stroke-width="0"></path>
</g>
</svg>
                </g>
              </g>
    </svg>